<svg xmlns="http://www.w3.org/2000/svg" viewBox="0 0 128 128" width="128" height="128">
  <rect width="128" height="128" fill="#2E3D2B"/>
  <g transform="translate(20 14) scale(0.8)">
    <path fill="#F8F4EE" d="M31.84,106.67c0-0.98,0.98-1.31,3.45-2.46c6.4-2.3,6.89-5.91,6.89-36.76c0-5.09-1.31-8.21-5.91-15.26
      L16.9,21.83C8.53,8.53,6.24,6.4,2.63,4.92C0.82,4.27,0,3.94,0,2.95C0,2.3,0.33,2.13,1.31,2.13c1.64,0,12.14,0.98,21.01,0.98
      c7.88,0,18.71-0.98,20.19-0.98c0.82,0,1.31,0.33,1.31,0.98c0,0.82-0.66,0.98-2.95,1.97c-2.3,0.98-3.61,1.81-3.61,3.61
      c0,4.1,5.74,15.59,26.42,49.73l13.46-23.47c5.74-9.85,8.04-15.59,8.04-20.84c0-5.42-3.45-8.21-9.03-9.52
      c-1.31-0.16-1.81-0.82-1.81-1.48c0-0.82,0.49-0.98,1.64-0.98c1.64,0,11.32,0.98,17.89,0.98c3.77,0,10.67-0.98,11.65-0.98
      c0.82,0,1.48,0.33,1.48,0.98s-0.33,1.15-1.48,1.64c-7.38,2.3-10.67,5.91-16.57,16.08L66.63,58.75c-0.49,0.82-0.66,1.31-0.66,2.3
      c0,38.73,0.33,40.37,6.73,43.16c2.46,1.15,3.28,1.48,3.28,2.46c0,0.66-0.33,0.98-1.15,0.98c-1.48,0-12.96-1.15-20.68-1.15
      c-7.88,0-19.53,1.15-21.01,1.15C32.17,107.65,31.84,107.33,31.84,106.67z"/>
  </g>
</svg>
