<?xml version="1.0" encoding="utf-8"?>
<!-- Generator: Adobe Illustrator 28.2.0, SVG Export Plug-In . SVG Version: 6.00 Build 0)  -->
<svg version="1.1" xmlns="http://www.w3.org/2000/svg" xmlns:xlink="http://www.w3.org/1999/xlink" x="0px" y="0px"
	 viewBox="0 0 609.65 111.1" style="enable-background:new 0 0 609.65 111.1;" xml:space="preserve">
<style type="text/css">
	.st0{display:none;}
	.st1{display:inline;}
	.st2{fill:#342C2A;}
	.st3{display:inline;fill:#E5E2D9;}
	.st4{fill:#4F4A44;}
</style>
<g id="Layer_1" class="st0">
	<g class="st1">
		<rect x="-291.07" y="-511.03" class="st2" width="1232.59" height="1200"/>
	</g>
</g>
<g id="Layer_3" class="st0">
	<rect x="-291.07" y="-511.03" class="st3" width="1200" height="1200"/>
</g>
<g id="_x33_">
	<path class="st4" d="M31.84,106.67c0-0.98,0.98-1.31,3.45-2.46c6.4-2.3,6.89-5.91,6.89-36.76c0-5.09-1.31-8.21-5.91-15.26
		L16.9,21.83C8.53,8.53,6.24,6.4,2.63,4.92C0.82,4.27,0,3.94,0,2.95C0,2.3,0.33,2.13,1.31,2.13c1.64,0,12.14,0.98,21.01,0.98
		c7.88,0,18.71-0.98,20.19-0.98c0.82,0,1.31,0.33,1.31,0.98c0,0.82-0.66,0.98-2.95,1.97c-2.3,0.98-3.61,1.81-3.61,3.61
		c0,4.1,5.74,15.59,26.42,49.73l13.46-23.47c5.74-9.85,8.04-15.59,8.04-20.84c0-5.42-3.45-8.21-9.03-9.52
		c-1.31-0.16-1.81-0.82-1.81-1.48c0-0.82,0.49-0.98,1.64-0.98c1.64,0,11.32,0.98,17.89,0.98c3.77,0,10.67-0.98,11.65-0.98
		c0.82,0,1.48,0.33,1.48,0.98s-0.33,1.15-1.48,1.64c-7.38,2.3-10.67,5.91-16.57,16.08L66.63,58.75c-0.49,0.82-0.66,1.31-0.66,2.3
		c0,38.73,0.33,40.37,6.73,43.16c2.46,1.15,3.28,1.48,3.28,2.46c0,0.66-0.33,0.98-1.15,0.98c-1.48,0-12.96-1.15-20.68-1.15
		c-7.88,0-19.53,1.15-21.01,1.15C32.17,107.65,31.84,107.33,31.84,106.67z"/>
	<path class="st4" d="M92.72,106.34c0-0.82,0.49-1.15,1.97-1.48c7.06-1.81,9.52-5.09,14.93-19.37
		c8.53-22.98,20.68-56.62,25.44-70.73c0.66-1.97,1.15-3.28,1.15-3.94c0-0.82-0.66-1.31-4.27-2.63c-2.46-0.66-3.28-0.98-3.28-1.97
		c0-0.82,0.66-1.31,1.97-1.31C147.53,4.1,160,0,161.15,0c0.82,0,1.31,0.49,1.31,1.31c0,0.98-1.48,1.64-1.48,3.45
		c0,0.66,0.16,1.81,0.98,4.43c6.24,18.05,20.51,57.11,29.54,79.92c3.77,9.68,5.91,13.13,10.34,14.93c2.95,0.99,4.27,1.48,4.27,2.46
		c0,0.66-0.66,0.98-1.48,0.98c-2.13,0-13.79-0.98-23.96-0.98c-9.03,0-20.51,0.98-22.15,0.98c-0.98,0-1.64-0.33-1.64-0.98
		c0-1.31,0.82-1.15,2.79-1.81c6.07-1.8,7.22-4.59,7.22-7.22c0-3.28-2.63-12.14-6.07-22.15c-0.82-2.13-1.48-2.79-3.45-2.95
		c-4.1-0.33-11.49-0.49-22.15-0.49c-8.37,0-13.79,0.16-15.75,0.33c-1.64,0.16-1.97,0.49-2.46,1.64c-2.3,6.73-3.77,11.49-4.76,14.93
		c-0.82,2.95-1.15,5.09-1.15,6.73c0,4.76,2.95,7.38,9.52,9.19c1.81,0.49,2.46,0.82,2.46,1.64s-0.49,1.15-1.48,1.15
		c-1.48,0-10.01-0.98-15.75-0.98c-4.27,0-10.34,0.98-11.49,0.98C93.38,107.49,92.72,107.16,92.72,106.34z M120.46,68.43
		c1.48,0.16,7.06,0.33,16.08,0.33c9.19,0,17.56-0.16,19.86-0.49c0.98-0.16,1.48-0.66,1.48-1.31c0-0.49-0.16-0.98-0.33-1.48
		c-6.24-17.72-13.29-37.75-17.23-49.23c-0.98-2.46-1.15-2.95-1.48-2.95c-0.49,0-0.66,0.49-1.15,2.3
		c-5.58,15.26-12.14,33.81-17.89,50.05c-0.16,0.82-0.49,1.48-0.49,1.97C119.31,67.94,119.47,68.27,120.46,68.43z"/>
	<path class="st4" d="M250.59,83.7c-1.15,0-1.81,0.49-1.81,2.13c0.33,14.28,1.48,16.25,4.76,18.05c2.63,1.48,4.6,1.48,4.6,2.63
		c0,0.66-0.33,0.98-1.31,0.98c-1.48,0-12.47-0.98-20.35-0.98c-7.71,0-17.89,0.98-19.36,0.98c-0.82,0-1.15-0.33-1.15-0.98
		c0-1.15,0.98-1.31,3.45-2.63c4.6-2.13,5.25-5.91,5.25-51.2c0-41.35-0.66-44.15-5.25-46.94c-1.81-1.15-3.45-1.48-3.45-2.46
		c0-0.66,0.33-0.98,1.15-0.98c1.48,0,11.32,0.82,19.04,0.82c8.86,0,21.01-1.81,27.24-1.81c30.85,0,50.22,16.74,50.22,39.71
		c0,25.93-21.83,42.34-47.26,42.34c-4.1,0-7.55-0.33-10.83-0.66v0.33c13.62,2.13,26.26,12.64,45.95,12.64
		c12.47,0,18.05-6.24,19.53-15.1c0-0.66,0.33-0.82,0.66-0.82c0.98,0,2.3,4.1,2.3,8.86c0,12.31-8.7,22.48-20.19,22.48
		C283.25,111.1,265.52,83.7,250.59,83.7z M256.83,81.23c20.84,0,31.02-12.96,31.02-40.86c0-25.93-10.01-36.76-25.11-36.76
		c-6.24,0-10.34,1.31-11.98,4.1c-2.13,3.28-2.46,7.06-2.13,44.97v24.94C248.62,80.74,249.77,81.23,256.83,81.23z"/>
	<path class="st4" d="M339.04,104.21c5.42-2.3,5.42-6.24,5.42-49.72c0-42.34-0.16-46.61-5.58-49.07c-2.3-0.98-3.12-1.15-3.12-2.13
		c0-0.66,0.16-0.98,1.15-0.98c1.48,0,11.49,0.82,19.53,0.82c9.03,0,23.63-1.48,27.73-1.48c36.6,0,61.54,21.66,61.54,53.17
		c0,31.67-24.94,53.5-61.54,53.5c-4.92,0-17.89-1.64-27.73-1.64c-7.55,0-18.05,0.82-19.53,0.82c-0.99,0-1.15-0.33-1.15-0.98
		C335.76,105.52,336.58,105.36,339.04,104.21z M419.62,54.81c0-38.07-13.79-50.87-34.3-50.87c-8.04,0-14.11,2.3-15.43,6.56
		c-1.64,4.6-1.48,15.92-1.48,43.98c0,21.33-0.16,40.21,1.48,44.97c1.64,4.43,6.89,6.56,15.43,6.56
		C405.83,106.01,419.62,92.56,419.62,54.81z"/>
	<path class="st4" d="M459.66,106.51c0-0.98,0.66-1.31,2.95-2.3c5.74-2.3,5.91-6.89,5.91-49.72c0-42.18-0.16-46.94-5.91-49.4
		c-2.3-0.82-2.95-0.98-2.95-1.97c0-0.66,0.33-1.15,1.15-1.15c1.48,0,11.32,1.15,19.69,1.15c8.21,0,18.05-1.15,19.69-1.15
		c0.82,0,1.15,0.49,1.15,1.15c0,0.98-0.82,1.15-3.12,1.97c-5.74,2.46-5.74,7.22-5.74,49.4c0,42.83,0,47.43,5.74,49.72
		c2.3,0.99,3.12,1.31,3.12,2.3c0,0.66-0.33,0.98-1.15,0.98c-1.64,0-11.82-1.15-19.69-1.15c-8.04,0-18.22,1.15-19.69,1.15
		C459.99,107.49,459.66,107.16,459.66,106.51z"/>
	<path class="st4" d="M519.23,106.01c0-0.98,0.82-1.15,3.12-2.13c6.4-2.62,6.73-5.58,6.73-49.07c0-43.65-0.33-46.61-6.73-49.23
		c-2.3-0.98-3.12-1.31-3.12-2.3c0-0.66,0.16-0.98,1.15-0.98c2.46,0,12.96,0.82,25.44,0.82c22.48,0,57.93-0.82,62.69-0.82
		c0.98,0,1.15,0.33,1.15,0.98c0,1.48-3.45,1.81-3.45,7.71c0,9.52,2.79,22.65,2.79,23.8c0,0.98-0.33,1.31-0.98,1.31
		c-0.82,0-1.48-0.66-1.81-1.97c-7.88-25.11-18.87-28.72-35.12-28.72c-9.35,0-12.8,0.66-14.77,3.12c-1.97,2.46-3.12,8.04-3.28,39.22
		c0.16,3.28,1.97,4.1,9.85,4.1c14.77,0,17.07-4.27,21.17-15.59c0.16-0.98,0.82-1.31,1.48-1.31c0.33,0,0.82,0.33,0.82,1.15
		c0,1.15-0.82,7.88-0.82,17.23c0,10.67,0.82,15.59,0.82,16.9c0,0.82-0.49,1.15-0.82,1.15c-0.66,0-1.15-0.33-1.48-1.31
		c-3.77-11.16-6.4-15.43-21.17-15.43c-7.88,0-9.68,0.66-9.85,3.77c0.33,33.81,1.64,40.37,3.77,42.83c1.81,2.3,4.76,2.95,13.46,2.95
		c19.86,0.49,32.17-7.22,36.76-37.58c0.33-1.64,0.99-2.3,1.81-2.3s1.15,0.49,1.15,1.31c0,1.15-2.95,18.54-2.95,32.49
		c0,6.07,3.45,6.4,3.45,7.88c0,0.66-0.33,0.98-1.15,0.98c-5.58,0-42.18-0.49-62.85-0.49c-16.74,0-23.63,0.49-26.09,0.49
		C519.39,107,519.23,106.67,519.23,106.01z"/>
	
		<text transform="matrix(1 0 0 1 72.1245 185.9468)" style="display:none;fill:#F9F7F4; font-family:'HelveticaNeue'; font-size:37.5434px; letter-spacing:3;">EXTERIOR DESIGN CO.</text>
</g>
</svg>
