<?xml version="1.0" encoding="UTF-8"?>
<svg id="Layer_1" xmlns="http://www.w3.org/2000/svg" version="1.1" viewBox="0 0 32 32">
  <!-- Generator: Adobe Illustrator 30.1.0, SVG Export Plug-In . SVG Version: 2.1.1 Build 136)  -->
  <defs>
    <style>
      .st0 {
        fill: #342c2a;
      }

      .st1 {
        fill: #f7f7f7;
      }
    </style>
  </defs>
  <rect class="st0" width="32" height="32"/>
  <path class="st1" d="M12.41,24.55c0-.17.17-.21.58-.41,1.06-.38,1.14-.98,1.14-6.08,0-.84-.21-1.36-.98-2.53l-3.21-5.01c-1.39-2.2-1.77-2.55-2.36-2.79-.3-.1-.43-.17-.43-.31,0-.12.05-.13.21-.13.26,0,2,.17,3.47.17,1.31,0,3.09-.17,3.34-.17.13,0,.21.05.21.17,0,.13-.12.17-.5.33s-.59.3-.59.59c0,.68.94,2.58,4.36,8.21l2.23-3.88c.94-1.64,1.32-2.58,1.32-3.44s-.56-1.36-1.49-1.57c-.21-.03-.3-.13-.3-.25,0-.13.08-.17.26-.17.26,0,1.87.17,2.96.17.63,0,1.77-.17,1.93-.17.13,0,.25.05.25.17s-.05.2-.25.26c-1.22.36-1.75.98-2.73,2.64l-3.7,6.28c-.08.13-.1.21-.1.36,0,6.4.05,6.68,1.11,7.14.41.2.55.25.55.41,0,.12-.05.17-.2.17-.25,0-2.15-.2-3.42-.2s-3.22.2-3.47.2c-.15,0-.21-.07-.21-.17Z"/>
</svg>