<?xml version="1.0" encoding="utf-8"?>
<!-- Generator: Adobe Illustrator 28.2.0, SVG Export Plug-In . SVG Version: 6.00 Build 0)  -->
<svg version="1.1" id="Layer_1" xmlns="http://www.w3.org/2000/svg" xmlns:xlink="http://www.w3.org/1999/xlink" x="0px" y="0px"
	 viewBox="0 0 610.5 176.9" style="enable-background:new 0 0 610.5 176.9;" xml:space="preserve">
<style type="text/css">
	.st0{display:none;}
	.st1{display:inline;}
	.st2{fill:#342C2A;}
	.st3{display:inline;fill:#E5E2D9;}
	.st4{fill:#4F4A44;}
	.st5{enable-background:new    ;}
</style>
<g id="Layer_1_00000051365123425249314970000009544526319893509548_" class="st0">
	<g class="st1">
		<rect x="-291.1" y="-511" class="st2" width="1232.6" height="1200"/>
	</g>
</g>
<g id="Layer_3" class="st0">
	<rect x="-291.1" y="-511" class="st3" width="1200" height="1200"/>
</g>
<path class="st4" d="M31.8,106.7c0-1,1-1.3,3.5-2.5c6.4-2.3,6.9-5.9,6.9-36.8c0-5.1-1.3-8.2-5.9-15.3L16.9,21.8
	C8.5,8.5,6.2,6.4,2.6,4.9C0.8,4.3,0,3.9,0,3c0-0.7,0.3-0.8,1.3-0.8c1.6,0,12.1,1,21,1c7.9,0,18.7-1,20.2-1c0.8,0,1.3,0.3,1.3,1
	c0,0.8-0.7,1-3,2c-2.3,1-3.6,1.8-3.6,3.6c0,4.1,5.7,15.6,26.4,49.7l13.5-23.5c5.7-9.9,8-15.6,8-20.8c0-5.4-3.4-8.2-9-9.5
	c-1.3-0.2-1.8-0.8-1.8-1.5c0-0.8,0.5-1,1.6-1c1.6,0,11.3,1,17.9,1c3.8,0,10.7-1,11.7-1c0.8,0,1.5,0.3,1.5,1s-0.3,1.2-1.5,1.6
	C98.1,7,94.9,10.7,89,20.8L66.6,58.8C66.1,59.6,66,60.1,66,61c0,38.7,0.3,40.4,6.7,43.2c2.5,1.2,3.3,1.5,3.3,2.5c0,0.7-0.3,1-1.2,1
	c-1.5,0-13-1.2-20.7-1.2c-7.9,0-19.5,1.2-21,1.2C32.2,107.7,31.8,107.3,31.8,106.7z"/>
<path class="st4" d="M92.7,106.3c0-0.8,0.5-1.2,2-1.5c7.1-1.8,9.5-5.1,14.9-19.4c8.5-23,20.7-56.6,25.4-70.7c0.7-2,1.1-3.3,1.1-3.9
	c0-0.8-0.7-1.3-4.3-2.6c-2.5-0.7-3.3-1-3.3-2c0-0.8,0.7-1.3,2-1.3C147.5,4.1,160,0,161.1,0c0.8,0,1.3,0.5,1.3,1.3
	c0,1-1.5,1.6-1.5,3.5c0,0.7,0.2,1.8,1,4.4c6.2,18,20.5,57.1,29.5,79.9c3.8,9.7,5.9,13.1,10.3,14.9c2.9,1,4.3,1.5,4.3,2.5
	c0,0.7-0.7,1-1.5,1c-2.1,0-13.8-1-24-1c-9,0-20.5,1-22.1,1c-1,0-1.6-0.3-1.6-1c0-1.3,0.8-1.2,2.8-1.8c6.1-1.8,7.2-4.6,7.2-7.2
	c0-3.3-2.6-12.1-6.1-22.2c-0.8-2.1-1.5-2.8-3.4-2.9c-4.1-0.3-11.5-0.5-22.1-0.5c-8.4,0-13.8,0.2-15.8,0.3c-1.6,0.2-2,0.5-2.5,1.6
	c-2.3,6.7-3.8,11.5-4.8,14.9c-0.8,2.9-1.2,5.1-1.2,6.7c0,4.8,2.9,7.4,9.5,9.2c1.8,0.5,2.5,0.8,2.5,1.6s-0.5,1.2-1.5,1.2
	c-1.5,0-10-1-15.8-1c-4.3,0-10.3,1-11.5,1C93.4,107.5,92.7,107.2,92.7,106.3z M120.5,68.4c1.5,0.2,7.1,0.3,16.1,0.3
	c9.2,0,17.6-0.2,19.9-0.5c1-0.2,1.5-0.7,1.5-1.3c0-0.5-0.2-1-0.3-1.5c-6.2-17.7-13.3-37.8-17.2-49.2c-1-2.5-1.1-2.9-1.5-2.9
	c-0.5,0-0.7,0.5-1.1,2.3c-5.6,15.3-12.1,33.8-17.9,50c-0.2,0.8-0.5,1.5-0.5,2C119.3,67.9,119.5,68.3,120.5,68.4z"/>
<path class="st4" d="M250.6,83.7c-1.1,0-1.8,0.5-1.8,2.1c0.3,14.3,1.5,16.2,4.8,18c2.6,1.5,4.6,1.5,4.6,2.6c0,0.7-0.3,1-1.3,1
	c-1.5,0-12.5-1-20.4-1c-7.7,0-17.9,1-19.4,1c-0.8,0-1.1-0.3-1.1-1c0-1.2,1-1.3,3.4-2.6c4.6-2.1,5.2-5.9,5.2-51.2
	c0-41.3-0.7-44.2-5.2-46.9c-1.8-1.2-3.4-1.5-3.4-2.5c0-0.7,0.3-1,1.1-1c1.5,0,11.3,0.8,19,0.8c8.9,0,21-1.8,27.2-1.8
	c30.9,0,50.2,16.7,50.2,39.7c0,25.9-21.8,42.3-47.3,42.3c-4.1,0-7.5-0.3-10.8-0.7V83c13.6,2.1,26.3,12.6,45.9,12.6
	c12.5,0,18-6.2,19.5-15.1c0-0.7,0.3-0.8,0.7-0.8c1,0,2.3,4.1,2.3,8.9c0,12.3-8.7,22.5-20.2,22.5C283.2,111.1,265.5,83.7,250.6,83.7z
	 M256.8,81.2c20.8,0,31-13,31-40.9c0-25.9-10-36.8-25.1-36.8c-6.2,0-10.3,1.3-12,4.1c-2.1,3.3-2.5,7.1-2.1,45v24.9
	C248.6,80.7,249.8,81.2,256.8,81.2z"/>
<path class="st4" d="M339,104.2c5.4-2.3,5.4-6.2,5.4-49.7c0-42.3-0.2-46.6-5.6-49.1c-2.3-1-3.1-1.2-3.1-2.1c0-0.7,0.2-1,1.1-1
	c1.5,0,11.5,0.8,19.5,0.8c9,0,23.6-1.5,27.7-1.5c36.6,0,61.5,21.7,61.5,53.2c0,31.7-24.9,53.5-61.5,53.5c-4.9,0-17.9-1.6-27.7-1.6
	c-7.5,0-18,0.8-19.5,0.8c-1,0-1.1-0.3-1.1-1C335.8,105.5,336.6,105.4,339,104.2z M419.6,54.8c0-38.1-13.8-50.9-34.3-50.9
	c-8,0-14.1,2.3-15.4,6.6c-1.6,4.6-1.5,15.9-1.5,44c0,21.3-0.2,40.2,1.5,45c1.6,4.4,6.9,6.6,15.4,6.6
	C405.8,106,419.6,92.6,419.6,54.8z"/>
<path class="st4" d="M459.7,106.5c0-1,0.7-1.3,3-2.3c5.7-2.3,5.9-6.9,5.9-49.7c0-42.2-0.2-46.9-5.9-49.4c-2.3-0.8-3-1-3-2
	c0-0.7,0.3-1.1,1.1-1.1c1.5,0,11.3,1.1,19.7,1.1c8.2,0,18-1.1,19.7-1.1c0.8,0,1.1,0.5,1.1,1.1c0,1-0.8,1.1-3.1,2
	c-5.7,2.5-5.7,7.2-5.7,49.4c0,42.8,0,47.4,5.7,49.7c2.3,1,3.1,1.3,3.1,2.3c0,0.7-0.3,1-1.1,1c-1.6,0-11.8-1.2-19.7-1.2
	c-8,0-18.2,1.2-19.7,1.2C460,107.5,459.7,107.2,459.7,106.5z"/>
<path class="st4" d="M519.2,106c0-1,0.8-1.2,3.1-2.1c6.4-2.6,6.7-5.6,6.7-49.1c0-43.7-0.3-46.6-6.7-49.2c-2.3-1-3.1-1.3-3.1-2.3
	c0-0.7,0.2-1,1.2-1c2.5,0,13,0.8,25.4,0.8c22.5,0,57.9-0.8,62.7-0.8c1,0,1.2,0.3,1.2,1c0,1.5-3.5,1.8-3.5,7.7
	c0,9.5,2.8,22.7,2.8,23.8c0,1-0.3,1.3-1,1.3c-0.8,0-1.5-0.7-1.8-2C598.3,9,587.3,5.4,571.1,5.4c-9.3,0-12.8,0.7-14.8,3.1
	c-2,2.5-3.1,8-3.3,39.2c0.2,3.3,2,4.1,9.8,4.1c14.8,0,17.1-4.3,21.2-15.6c0.2-1,0.8-1.3,1.5-1.3c0.3,0,0.8,0.3,0.8,1.2
	c0,1.2-0.8,7.9-0.8,17.2c0,10.7,0.8,15.6,0.8,16.9c0,0.8-0.5,1.2-0.8,1.2c-0.7,0-1.2-0.3-1.5-1.3c-3.8-11.2-6.4-15.4-21.2-15.4
	c-7.9,0-9.7,0.7-9.8,3.8c0.3,33.8,1.6,40.4,3.8,42.8c1.8,2.3,4.8,2.9,13.5,2.9c19.9,0.5,32.2-7.2,36.8-37.6c0.3-1.6,1-2.3,1.8-2.3
	s1.2,0.5,1.2,1.3c0,1.2-3,18.5-3,32.5c0,6.1,3.5,6.4,3.5,7.9c0,0.7-0.3,1-1.2,1c-5.6,0-42.2-0.5-62.8-0.5c-16.7,0-23.6,0.5-26.1,0.5
	C519.4,107,519.2,106.7,519.2,106z"/>
<g class="st5">
	<path class="st4" d="M128.1,168.5v6H140v2.5h-14.8v-18.8h14.2v2.5h-11.3v5.4h10.1v2.3H128.1z"/>
	<path class="st4" d="M151.3,167.3l-7.2-9.1h3.6l5.7,7.2h0.1c0,0,0.9-1.6,1.4-2.1l4-5h3.5l-7.3,9.2l7.6,9.5h-3.6l-6-7.6h-0.1
		c0,0-1.3,2-1.5,2.3l-4.1,5.2h-3.4L151.3,167.3z"/>
	<path class="st4" d="M173.5,160.7h-7.8v-2.5h18.6v2.5h-7.8v16.2h-2.9V160.7z"/>
	<path class="st4" d="M192.4,168.5v6h11.9v2.5h-14.8v-18.8h14.2v2.5h-11.3v5.4h10.1v2.3H192.4z"/>
	<path class="st4" d="M210.2,158.2h6.7c5.2,0,7.4,2.5,7.4,5.7c0,2-1,4-3.4,5v0.1l5.5,7.9H223l-5.2-7.4h-4.7v7.4h-2.9V158.2z
		 M216.6,167.2c3.3,0,4.7-1,4.7-3.2c0-1.9-1-3.2-4.4-3.2h-3.8v6.5H216.6z"/>
	<path class="st4" d="M234.6,158.2v18.8h-2.9v-18.8H234.6z"/>
	<path class="st4" d="M261.8,167.5c0,5.6-4.3,9.8-10.5,9.8c-5.9,0-10.5-3.9-10.5-9.8c0-5.4,4.6-9.6,10.5-9.6
		C257.2,157.8,261.8,162,261.8,167.5z M243.8,167.5c0,4.7,3.2,7.3,7.4,7.3c4.2,0,7.4-2.7,7.4-7.3c0-4.2-3.2-7.1-7.4-7.1
		C247,160.4,243.8,163.2,243.8,167.5z"/>
	<path class="st4" d="M267.9,158.2h6.7c5.2,0,7.4,2.5,7.4,5.7c0,2-1,4-3.4,5v0.1l5.5,7.9h-3.4l-5.2-7.4h-4.7v7.4h-2.9V158.2z
		 M274.3,167.2c3.3,0,4.7-1,4.7-3.2c0-1.9-1-3.2-4.4-3.2h-3.8v6.5H274.3z"/>
	<path class="st4" d="M304.4,158.2c8.6,0,11.8,4.1,11.8,9.3c0,6.3-3.8,9.4-10.6,9.4h-7v-18.8H304.4z M301.6,174.4h4
		c5.2,0,7.6-2.1,7.6-6.9c0-3.8-2.1-6.8-8.3-6.8h-3.3V174.4z"/>
	<path class="st4" d="M325.3,168.5v6h11.9v2.5h-14.8v-18.8h14.2v2.5h-11.3v5.4h10.1v2.3H325.3z"/>
	<path class="st4" d="M341.5,175.6l1-2.4c1.6,0.7,4,1.5,6.5,1.5c3.4,0,5-1.5,5-3.4c0-0.9-0.4-1.6-1.2-2c-0.8-0.5-2.2-0.7-4-0.9
		c-2.1-0.2-3.6-0.5-4.9-1.2c-1.9-0.9-2.5-2.5-2.5-4.1c0-3.1,3.1-5.4,7.5-5.4c2.8,0,5,0.5,6.8,1.4l-1,2.3c-1.4-0.6-3.8-1.2-5.9-1.2
		c-3.4,0-4.6,1.5-4.6,2.9c0,0.7,0.3,1.4,1.3,1.9c0.8,0.4,2,0.6,3.8,0.8c1.9,0.3,3.8,0.6,4.8,1.2c1.8,0.9,2.6,2.3,2.6,4.2
		c0,3.3-2.9,5.9-7.8,5.9C345.9,177.3,343.6,176.7,341.5,175.6z"/>
	<path class="st4" d="M366,158.2v18.8h-2.9v-18.8H366z"/>
	<path class="st4" d="M375.1,167.7c0,4.4,3.3,7.1,6.9,7.1c2.8,0,5.1-1.1,5.9-1.9v-3.4h-5.5v-2.3h8.4v9.8h-2.1l-0.8-2.2h-0.2
		c-1.5,2-3.3,2.5-5.8,2.5c-6.4,0-9.9-4.2-9.9-9.6c0-5.7,4.2-9.8,10.4-9.8c4.1,0,6.4,1.4,7.8,2.7l-1.4,2.2c-1.9-1.4-3.7-2.3-6.4-2.3
		C377.8,160.4,375.1,163.5,375.1,167.7z"/>
	<path class="st4" d="M413.1,158.2h2.9v18.8h-2.6l-12.3-14.3h-0.1c0,0,0.3,3.2,0.3,4.8v9.6h-2.9v-18.8h2.6l12.3,14.3h0.1
		c0,0-0.3-3.3-0.3-4.4V158.2z"/>
	<path class="st4" d="M431.5,167.7c0-5.4,4.3-9.9,10.6-9.9c4.3,0,6.2,1.5,7.7,2.7l-1.6,2.2c-1.8-1.5-3.7-2.4-6.3-2.4
		c-4.7,0-7.4,3.3-7.4,7.4c0,4,2.9,7,7.7,7c3.4,0,5.4-1.7,6.8-2.9l1.6,1.9c-1.1,1.3-3.8,3.5-8.3,3.5C435,177.3,431.5,173,431.5,167.7
		z"/>
	<path class="st4" d="M475.7,167.5c0,5.6-4.3,9.8-10.5,9.8c-5.9,0-10.5-3.9-10.5-9.8c0-5.4,4.6-9.6,10.5-9.6
		C471.1,157.8,475.7,162,475.7,167.5z M457.7,167.5c0,4.7,3.2,7.3,7.4,7.3c4.2,0,7.4-2.7,7.4-7.3c0-4.2-3.2-7.1-7.4-7.1
		C460.9,160.4,457.7,163.2,457.7,167.5z"/>
	<path class="st4" d="M483.1,173.7c1.1,0,1.9,0.7,1.9,1.8s-0.8,1.8-1.9,1.8c-1.1,0-1.9-0.7-1.9-1.8S482,173.7,483.1,173.7z"/>
</g>
</svg>
