<?xml version="1.0" encoding="utf-8"?>
<!-- Generator: Adobe Illustrator 28.2.0, SVG Export Plug-In . SVG Version: 6.00 Build 0)  -->
<svg version="1.1" id="Layer_1" xmlns="http://www.w3.org/2000/svg" xmlns:xlink="http://www.w3.org/1999/xlink" x="0px" y="0px"
	 viewBox="0 0 610 112.1" style="enable-background:new 0 0 610 112.1;" xml:space="preserve">
<style type="text/css">
	.st0{display:none;}
	.st1{display:inline;}
	.st2{fill:#342C2A;}
	.st3{display:inline;fill:#E5E2D9;}
	.st4{fill:#F9F7F4;}
</style>
<g id="Layer_1_00000155836562510998834750000002216230414704499333_" class="st0">
	<g class="st1">
		<rect x="-291.1" y="-510" class="st2" width="1200" height="1200"/>
	</g>
</g>
<g id="Layer_3" class="st0">
	<rect x="-291.1" y="-510" class="st3" width="1200" height="1200"/>
</g>
<g id="_x33_">
	<path class="st4" d="M31.8,107.7c0-1,1-1.3,3.5-2.5c6.4-2.3,6.9-5.9,6.9-36.8c0-5.1-1.3-8.2-5.9-15.3L16.9,22.9
		C8.5,9.6,6.2,7.4,2.6,5.9C0.8,5.3,0,5,0,4c0-0.7,0.3-0.8,1.3-0.8c1.6,0,12.1,1,21,1c7.9,0,18.7-1,20.2-1c0.8,0,1.3,0.3,1.3,1
		c0,0.8-0.7,1-3,2c-2.3,1-3.6,1.8-3.6,3.6c0,4.1,5.7,15.6,26.4,49.7L77.1,36c5.7-9.9,8-15.6,8-20.8c0-5.4-3.4-8.2-9-9.5
		c-1.3-0.2-1.8-0.8-1.8-1.5c0-0.8,0.5-1,1.6-1c1.6,0,11.3,1,17.9,1c3.8,0,10.7-1,11.7-1c0.8,0,1.5,0.3,1.5,1s-0.3,1.2-1.5,1.6
		C98.1,8.1,94.9,11.7,89,21.9L66.6,59.8c-0.5,0.8-0.7,1.3-0.7,2.3c0,38.7,0.3,40.4,6.7,43.2c2.5,1.2,3.3,1.5,3.3,2.5
		c0,0.7-0.3,1-1.2,1c-1.5,0-13-1.2-20.7-1.2c-7.9,0-19.5,1.2-21,1.2C32.2,108.7,31.8,108.3,31.8,107.7z"/>
	<path class="st4" d="M92.7,107.4c0-0.8,0.5-1.2,2-1.5c7.1-1.8,9.5-5.1,14.9-19.4c8.5-23,20.7-56.6,25.4-70.7c0.7-2,1.1-3.3,1.1-3.9
		c0-0.8-0.7-1.3-4.3-2.6c-2.5-0.7-3.3-1-3.3-2c0-0.8,0.7-1.3,2-1.3C147.5,5.1,160,1,161.1,1c0.8,0,1.3,0.5,1.3,1.3
		c0,1-1.5,1.6-1.5,3.4c0,0.7,0.2,1.8,1,4.4c6.2,18,20.5,57.1,29.5,79.9c3.8,9.7,5.9,13.1,10.3,14.9c2.9,1,4.3,1.5,4.3,2.5
		c0,0.7-0.7,1-1.5,1c-2.1,0-13.8-1-24-1c-9,0-20.5,1-22.1,1c-1,0-1.6-0.3-1.6-1c0-1.3,0.8-1.2,2.8-1.8c6.1-1.8,7.2-4.6,7.2-7.2
		c0-3.3-2.6-12.1-6.1-22.2c-0.8-2.1-1.5-2.8-3.4-2.9c-4.1-0.3-11.5-0.5-22.1-0.5c-8.4,0-13.8,0.2-15.8,0.3c-1.6,0.2-2,0.5-2.5,1.6
		c-2.3,6.7-3.8,11.5-4.8,14.9c-0.8,2.9-1.2,5.1-1.2,6.7c0,4.8,2.9,7.4,9.5,9.2c1.8,0.5,2.5,0.8,2.5,1.6s-0.5,1.2-1.5,1.2
		c-1.5,0-10-1-15.8-1c-4.3,0-10.3,1-11.5,1C93.4,108.5,92.7,108.2,92.7,107.4z M120.4,69.4c1.5,0.2,7.1,0.3,16.1,0.3
		c9.2,0,17.6-0.2,19.9-0.5c1-0.2,1.5-0.7,1.5-1.3c0-0.5-0.2-1-0.3-1.5c-6.2-17.7-13.3-37.8-17.2-49.2c-1-2.5-1.1-2.9-1.5-2.9
		c-0.5,0-0.7,0.5-1.1,2.3c-5.6,15.3-12.1,33.8-17.9,50c-0.2,0.8-0.5,1.5-0.5,2C119.3,69,119.5,69.3,120.4,69.4z"/>
	<path class="st4" d="M250.6,84.7c-1.1,0-1.8,0.5-1.8,2.1c0.3,14.3,1.5,16.2,4.8,18.1c2.6,1.5,4.6,1.5,4.6,2.6c0,0.7-0.3,1-1.3,1
		c-1.5,0-12.5-1-20.4-1c-7.7,0-17.9,1-19.4,1c-0.8,0-1.1-0.3-1.1-1c0-1.2,1-1.3,3.4-2.6c4.6-2.1,5.2-5.9,5.2-51.2
		c0-41.3-0.7-44.2-5.2-46.9c-1.8-1.2-3.4-1.5-3.4-2.5c0-0.7,0.3-1,1.1-1c1.5,0,11.3,0.8,19,0.8c8.9,0,21-1.8,27.2-1.8
		c30.9,0,50.2,16.7,50.2,39.7c0,25.9-21.8,42.3-47.3,42.3c-4.1,0-7.5-0.3-10.8-0.7V84c13.6,2.1,26.3,12.6,45.9,12.6
		c12.5,0,18-6.2,19.5-15.1c0-0.7,0.3-0.8,0.7-0.8c1,0,2.3,4.1,2.3,8.9c0,12.3-8.7,22.5-20.2,22.5C283.2,112.1,265.5,84.7,250.6,84.7
		z M256.8,82.2c20.8,0,31-13,31-40.9c0-25.9-10-36.8-25.1-36.8c-6.2,0-10.3,1.3-12,4.1c-2.1,3.3-2.5,7.1-2.1,45v24.9
		C248.6,81.8,249.8,82.2,256.8,82.2z"/>
	<path class="st4" d="M339,105.2c5.4-2.3,5.4-6.2,5.4-49.7c0-42.3-0.2-46.6-5.6-49.1c-2.3-1-3.1-1.2-3.1-2.1c0-0.7,0.2-1,1.1-1
		c1.5,0,11.5,0.8,19.5,0.8c9,0,23.6-1.5,27.7-1.5c36.6,0,61.5,21.7,61.5,53.2c0,31.7-24.9,53.5-61.5,53.5c-4.9,0-17.9-1.6-27.7-1.6
		c-7.5,0-18,0.8-19.5,0.8c-1,0-1.1-0.3-1.1-1C335.8,106.5,336.6,106.4,339,105.2z M419.6,55.8c0-38.1-13.8-50.9-34.3-50.9
		c-8,0-14.1,2.3-15.4,6.6c-1.6,4.6-1.5,15.9-1.5,44c0,21.3-0.2,40.2,1.5,45c1.6,4.4,6.9,6.6,15.4,6.6
		C405.8,107,419.6,93.6,419.6,55.8z"/>
	<path class="st4" d="M459.7,107.5c0-1,0.7-1.3,3-2.3c5.7-2.3,5.9-6.9,5.9-49.7c0-42.2-0.2-46.9-5.9-49.4c-2.3-0.8-3-1-3-2
		c0-0.7,0.3-1.2,1.1-1.2c1.5,0,11.3,1.2,19.7,1.2c8.2,0,18-1.2,19.7-1.2c0.8,0,1.1,0.5,1.1,1.2c0,1-0.8,1.2-3.1,2
		c-5.7,2.5-5.7,7.2-5.7,49.4c0,42.8,0,47.4,5.7,49.7c2.3,1,3.1,1.3,3.1,2.3c0,0.7-0.3,1-1.1,1c-1.6,0-11.8-1.2-19.7-1.2
		c-8,0-18.2,1.2-19.7,1.2C460,108.5,459.7,108.2,459.7,107.5z"/>
	<path class="st4" d="M519.2,107c0-1,0.8-1.2,3.1-2.1c6.4-2.6,6.7-5.6,6.7-49.1c0-43.7-0.3-46.6-6.7-49.2c-2.3-1-3.1-1.3-3.1-2.3
		c0-0.7,0.2-1,1.2-1c2.5,0,13,0.8,25.4,0.8c22.5,0,57.9-0.8,62.7-0.8c1,0,1.2,0.3,1.2,1c0,1.5-3.5,1.8-3.5,7.7
		c0,9.5,2.8,22.7,2.8,23.8c0,1-0.3,1.3-1,1.3c-0.8,0-1.5-0.7-1.8-2C598.3,10,587.3,6.4,571.1,6.4c-9.3,0-12.8,0.7-14.8,3.1
		c-2,2.5-3.1,8-3.3,39.2c0.2,3.3,2,4.1,9.8,4.1c14.8,0,17.1-4.3,21.2-15.6c0.2-1,0.8-1.3,1.5-1.3c0.3,0,0.8,0.3,0.8,1.2
		c0,1.2-0.8,7.9-0.8,17.2c0,10.7,0.8,15.6,0.8,16.9c0,0.8-0.5,1.2-0.8,1.2c-0.7,0-1.2-0.3-1.5-1.3c-3.8-11.2-6.4-15.4-21.2-15.4
		c-7.9,0-9.7,0.7-9.8,3.8c0.3,33.8,1.6,40.4,3.8,42.8c1.8,2.3,4.8,2.9,13.5,2.9c19.9,0.5,32.2-7.2,36.8-37.6c0.3-1.6,1-2.3,1.8-2.3
		s1.2,0.5,1.2,1.3c0,1.2-3,18.5-3,32.5c0,6.1,3.5,6.4,3.5,7.9c0,0.7-0.3,1-1.2,1c-5.6,0-42.2-0.5-62.8-0.5
		c-16.7,0-23.6,0.5-26.1,0.5C519.4,108,519.2,107.7,519.2,107z"/>
</g>
</svg>
